<?xml version="1.0" standalone="no"?>
<!DOCTYPE svg PUBLIC "-//W3C//DTD SVG 20010904//EN"
 "http://www.w3.org/TR/2001/REC-SVG-20010904/DTD/svg10.dtd">
<svg version="1.0" xmlns="http://www.w3.org/2000/svg"
 width="500.000000pt" height="450.000000pt" viewBox="0 0 500.000000 450.000000"
 preserveAspectRatio="xMidYMid meet">

<g transform="translate(0.000000,450.000000) scale(0.100000,-0.100000)"
fill="#000000" stroke="none">
<path d="M538 4429 c-26 -15 -22 -56 6 -75 20 -12 29 -13 43 -4 17 11 17 11 0
6 -25 -8 -57 11 -57 33 0 24 25 45 45 37 9 -3 13 -2 10 4 -8 13 -25 12 -47 -1z"/>
<path d="M624 4396 c-8 -9 -8 -17 1 -29 12 -16 13 -16 18 2 6 26 -5 42 -19 27z"/>
<path d="M682 4393 c-7 -7 -8 -13 -3 -13 5 0 11 -7 13 -15 2 -13 5 -13 14 2
15 25 -5 47 -24 26z"/>
<path d="M475 4222 c-242 -84 -383 -343 -320 -587 35 -132 139 -262 257 -318
79 -38 108 -44 108 -20 0 14 -14 24 -50 37 -168 60 -290 237 -290 421 0 200
129 371 333 439 9 3 17 15 17 26 0 11 -1 20 -2 20 -2 -1 -26 -8 -53 -18z"/>
<path d="M1100 4146 c0 -7 7 -19 15 -26 15 -13 11 -35 -6 -25 -5 4 -9 1 -9 -4
0 -17 30 -13 37 5 4 11 -1 22 -13 31 -16 12 -17 15 -4 23 13 8 12 10 -2 10
-10 0 -18 -6 -18 -14z"/>
<path d="M1157 4154 c-11 -12 -8 -51 6 -61 15 -13 57 -23 55 -14 -1 3 3 14 7
25 5 11 4 26 -2 35 -11 17 -54 27 -66 15z m60 -20 c8 -21 -19 -46 -40 -38 -17
6 -23 35 -10 47 12 13 44 7 50 -9z"/>
<path d="M1244 4125 c1 -31 5 -41 21 -43 18 -4 19 -3 3 10 -9 7 -19 27 -21 43
-3 21 -4 18 -3 -10z"/>
<path d="M567 3993 c-4 -3 -7 -18 -7 -31 0 -32 11 -23 14 12 3 28 3 30 -7 19z"/>
<path d="M667 3994 c-4 -4 -7 -19 -7 -33 l0 -25 16 23 c15 21 7 51 -9 35z"/>
<path d="M640 3980 c0 -5 -9 -10 -20 -10 -13 0 -20 -6 -19 -17 0 -11 3 -13 6
-5 2 6 11 12 18 12 7 0 16 -6 18 -12 3 -7 6 -1 6 15 1 15 -1 27 -4 27 -3 0 -5
-4 -5 -10z"/>
<path d="M2960 3920 c0 -18 7 -20 65 -20 58 0 65 2 65 20 0 18 -7 20 -65 20
-58 0 -65 -2 -65 -20z"/>
<path d="M1805 3711 c-99 -24 -164 -91 -204 -212 -12 -38 -33 -77 -50 -93 -35
-33 -106 -56 -176 -56 -67 0 -115 -30 -134 -85 -13 -39 -8 -64 26 -126 2 -4
-10 -9 -27 -13 -68 -13 -120 -105 -100 -176 5 -18 24 -48 41 -66 l32 -33 45
39 c135 120 282 184 452 199 l75 6 -2 76 c-1 70 -4 78 -32 107 -17 17 -31 41
-31 54 0 53 57 90 78 52 8 -14 13 -12 33 15 13 18 32 31 44 31 12 0 43 11 69
24 l47 24 28 -28 c15 -16 44 -32 64 -35 31 -6 36 -11 32 -29 -2 -11 -7 -39
-10 -61 l-7 -40 32 30 c38 36 60 75 60 108 0 14 7 38 15 53 32 62 8 134 -53
162 -20 10 -51 32 -69 50 -25 25 -40 32 -70 32 -22 0 -44 -5 -50 -11 -8 -8
-17 -8 -31 0 -23 12 -81 13 -127 2z"/>
<path d="M2960 3660 c0 -18 7 -20 80 -20 73 0 80 2 80 20 0 18 -7 20 -80 20
-73 0 -80 -2 -80 -20z"/>
<path d="M3160 3660 c0 -17 7 -20 45 -20 38 0 45 3 45 20 0 17 -7 20 -45 20
-38 0 -45 -3 -45 -20z"/>
<path d="M540 3458 c0 -66 1 -68 25 -68 14 0 28 -7 31 -15 4 -8 17 -15 30 -15
15 0 24 6 24 15 0 9 9 15 24 15 29 0 36 16 36 83 l0 52 -85 0 -85 0 0 -67z"/>
<path d="M2913 3384 c-3 -10 -34 -155 -67 -323 l-61 -306 -236 -1 c-157 -1
-242 -5 -257 -13 -23 -12 -27 -25 -102 -283 l-43 -148 -149 0 -148 0 0 -41 c0
-22 5 -49 10 -60 10 -18 26 -19 493 -19 362 0 486 3 495 12 7 7 12 25 12 40 0
15 4 28 10 28 5 0 7 7 4 15 -4 8 -3 23 1 33 5 9 7 25 6 35 -1 9 5 20 13 23 9
3 13 10 10 15 -3 5 96 9 234 9 184 0 242 3 250 13 6 7 14 32 18 55 l7 42 -137
0 -136 0 0 30 0 30 144 0 143 0 73 373 c41 204 74 390 74 412 l1 40 -328 3
c-298 2 -328 1 -334 -14z m246 -573 c0 -9 -13 -59 -28 -111 -24 -88 -28 -95
-54 -98 -15 -2 -27 2 -27 8 0 7 14 65 32 130 l32 118 23 -15 c13 -9 23 -23 22
-32z"/>
<path d="M3821 3311 c-14 -9 -18 -19 -25 -66 -2 -11 -4 -20 -6 -20 -1 0 -3 -9
-5 -20 -2 -11 -6 -31 -10 -45 -3 -14 -8 -40 -11 -59 -2 -18 -9 -41 -14 -51 -6
-11 -6 -21 -2 -24 5 -3 22 53 38 125 16 72 32 136 36 142 5 9 135 13 470 17
l463 5 -460 3 c-261 1 -466 -2 -474 -7z"/>
<path d="M1910 3237 c0 -13 44 -47 61 -47 9 0 21 6 28 13 8 11 5 13 -20 9 -19
-3 -37 2 -49 13 -11 10 -20 15 -20 12z"/>
<path d="M2060 3182 c-21 -39 -32 -49 -63 -56 -30 -8 -37 -14 -35 -29 2 -15
17 -23 55 -33 29 -8 72 -23 95 -35 40 -20 42 -20 55 -3 32 43 5 137 -52 180
l-30 23 -25 -47z"/>
<path d="M532 3135 c-1 -23 -7 -46 -14 -53 -9 -9 -9 -12 0 -12 18 0 24 22 19
66 l-4 39 -1 -40z"/>
<path d="M565 3134 c-17 -41 -19 -57 -4 -31 12 21 38 22 45 2 4 -8 10 -15 15
-15 5 0 0 18 -11 40 -11 22 -23 40 -25 40 -3 0 -12 -16 -20 -36z"/>
<path d="M611 3165 c0 -5 8 -26 19 -45 l19 -35 15 37 c22 51 19 61 -4 18 -11
-19 -19 -28 -20 -19 0 8 -7 24 -15 35 -8 10 -14 15 -14 9z"/>
<path d="M686 3134 c-9 -20 -15 -39 -12 -42 3 -3 8 3 12 12 8 21 33 21 51 -1
8 -10 5 1 -7 25 -11 23 -22 42 -23 42 -2 0 -11 -16 -21 -36z"/>
<path d="M4056 2965 c-20 -79 -36 -151 -36 -160 0 -12 13 -15 60 -15 33 0 60
4 60 9 0 5 5 22 10 37 10 26 11 26 30 9 11 -10 20 -26 20 -37 0 -15 8 -18 54
-18 l54 0 36 149 c20 82 36 154 36 160 0 7 -48 11 -144 11 l-144 0 -36 -145z"/>
<path d="M3739 3009 c0 -2 -2 -19 -5 -37 -2 -18 -8 -41 -14 -51 -5 -10 -7 -21
-3 -24 3 -4 1 -13 -5 -20 -7 -8 -9 -16 -6 -20 3 -3 1 -14 -5 -26 -6 -11 -7
-22 -3 -25 10 -6 57 193 48 201 -3 4 -6 4 -7 2z"/>
<path d="M3527 2874 c-4 -4 -7 -65 -7 -135 0 -92 -3 -128 -12 -131 -8 -3 -13
-27 -13 -68 0 -41 5 -65 13 -68 13 -4 18 -243 5 -241 -5 1 -29 1 -55 0 -41 -1
-48 -4 -48 -21 0 -19 7 -20 90 -20 75 0 91 -3 99 -17 10 -20 61 -262 61 -292
0 -18 -8 -20 -62 -23 l-62 -3 -166 -690 c-91 -379 -169 -697 -172 -705 -4 -8
-9 -27 -12 -43 -6 -26 -8 -27 -77 -27 -67 0 -70 -1 -67 -22 3 -21 9 -23 66
-26 46 -2 62 -7 62 -17 0 -21 126 -21 137 0 7 12 42 15 188 17 l180 3 1 60 c1
33 -1 43 -3 23 l-4 -38 -171 0 -170 0 6 23 c3 12 6 28 6 35 0 7 15 12 40 12
42 0 49 9 26 32 -7 8 -18 35 -24 61 -8 39 -5 65 15 153 l25 105 146 182 c80
100 152 187 158 192 13 10 91 109 134 169 14 20 28 36 32 36 10 0 9 -218 -3
-313 -18 -146 -55 -233 -148 -345 -33 -39 -68 -68 -112 -91 -83 -44 -109 -68
-109 -102 0 -14 -7 -32 -15 -39 -28 -23 -18 -40 25 -40 45 0 49 8 20 35 -43
39 -17 80 82 132 124 65 219 181 261 321 18 58 21 94 22 272 l0 205 34 43 c19
23 38 42 41 42 4 0 17 -42 28 -92 11 -51 32 -147 46 -213 14 -66 26 -123 26
-126 0 -4 -15 -10 -34 -13 -41 -8 -82 -47 -91 -87 -9 -42 12 -95 47 -120 33
-24 99 -29 121 -10 11 9 16 0 26 -47 7 -31 15 -65 18 -75 4 -17 3 -17 -16 2
-65 65 -163 41 -191 -46 -15 -45 -5 -84 31 -119 25 -24 38 -29 80 -28 40 0 55
6 79 29 16 15 30 39 32 54 2 16 14 -19 31 -89 15 -63 35 -139 44 -167 l16 -53
68 0 69 0 -6 33 c-11 62 -225 959 -234 980 -5 12 -26 91 -46 175 l-36 152 74
93 c100 124 97 117 44 117 -43 0 -47 -3 -88 -54 -24 -30 -46 -55 -49 -55 -3
-1 -11 24 -18 54 l-12 55 -68 0 -68 0 30 -124 29 -125 -38 -46 -39 -46 -17
108 c-10 59 -29 191 -43 293 -26 200 -36 245 -61 275 -9 12 -13 14 -10 5 25
-75 37 -132 50 -230 8 -63 26 -187 40 -275 14 -88 26 -168 26 -178 0 -18 -399
-521 -407 -513 -3 2 7 52 21 110 20 82 43 141 100 254 61 118 77 162 87 222
19 125 -2 352 -50 522 -10 37 -16 70 -13 73 3 3 33 5 68 5 48 0 63 4 68 17 9
22 -37 69 -81 84 l-33 11 0 83 c0 56 4 85 12 87 17 6 17 126 1 136 -8 5 -13
49 -15 137 l-3 130 -50 3 c-28 2 -54 0 -58 -4z m180 -616 c22 -18 15 -25 -27
-25 -37 0 -40 2 -40 28 0 27 2 28 27 18 15 -6 33 -15 40 -21z m-32 -603 c-3
-44 -11 -98 -16 -120 -11 -40 -108 -229 -115 -223 -1 2 8 46 21 98 13 52 40
167 61 255 37 157 38 159 47 115 4 -25 5 -81 2 -125z m-314 -1158 c-13 -13
-15 11 -4 40 7 16 8 15 11 -6 2 -13 -1 -28 -7 -34z"/>
<path d="M3689 2789 c0 -2 -2 -19 -5 -37 -2 -18 -8 -42 -14 -52 -6 -10 -6 -21
-2 -24 10 -6 37 102 28 111 -3 4 -6 4 -7 2z"/>
<path d="M4035 2566 c-13 -65 -2 -76 71 -76 l65 0 -3 53 -3 52 -62 3 -62 3 -6
-35z"/>
<path d="M570 2480 c0 -6 35 -10 86 -10 l85 0 -3 -140 -3 -141 28 3 28 3 2
133 c1 72 -2 132 -6 132 -4 0 -7 -59 -5 -130 3 -119 2 -130 -15 -130 -16 0
-17 11 -15 133 3 128 4 132 26 135 12 2 22 8 22 13 0 5 -51 9 -115 9 -70 0
-115 -4 -115 -10z"/>
<path d="M810 1946 c0 -62 -31 -205 -185 -849 -102 -426 -185 -778 -185 -781
0 -4 30 -6 67 -4 l67 3 61 252 60 253 280 349 c154 193 283 350 286 350 4 1
12 -27 18 -61 7 -35 28 -126 47 -203 19 -77 69 -282 110 -455 41 -173 84 -354
95 -403 l21 -87 70 0 c63 0 69 2 64 18 -4 10 -35 140 -70 288 -35 148 -105
440 -155 649 -50 208 -89 386 -86 395 3 8 17 28 31 44 l25 28 62 -30 c34 -17
76 -34 92 -37 17 -3 1 5 -34 19 -35 13 -73 33 -83 44 -20 19 -20 20 12 53 l32
34 -27 -37 c-37 -51 -27 -48 15 4 19 23 28 38 22 34 -18 -11 -14 10 5 25 15
12 16 12 8 -1 -8 -13 -6 -13 8 -1 10 8 34 12 62 9 25 -2 45 0 45 4 0 5 -72 8
-160 8 -153 0 -160 -1 -151 -18 5 -10 17 -24 25 -31 12 -10 13 -18 5 -32 -5
-10 -14 -19 -19 -19 -13 0 -40 132 -40 199 l0 61 -250 0 -250 0 0 -74z m397
-190 c32 -133 33 -139 16 -161 -61 -80 -478 -593 -481 -591 -2 3 163 707 205
874 5 22 8 23 116 20 l111 -3 33 -139z m196 72 c-18 -18 -24 -19 -37 -8 -25
20 -19 30 21 30 l37 0 -21 -22z"/>
<path d="M2058 1833 c-15 -16 -39 -50 -56 -78 -20 -34 -34 -49 -46 -47 -12 2
-15 -1 -11 -8 5 -9 1 -10 -15 -5 -16 5 -20 4 -15 -5 6 -9 -1 -11 -26 -6 -24 4
-28 3 -14 -3 30 -13 -59 -26 -170 -25 -77 0 -84 -1 -45 -8 81 -16 278 18 359
62 20 10 21 8 21 -48 0 -153 54 -327 196 -639 l78 -173 87 0 86 0 -5 166 c-3
111 -1 195 8 253 16 106 18 432 3 484 -9 28 -9 36 0 30 7 -3 -8 12 -33 35 -25
23 -52 41 -60 41 -9 0 -4 -8 13 -20 61 -46 62 -53 60 -394 -2 -314 -14 -509
-33 -545 -25 -47 -81 32 -178 250 -118 267 -164 454 -144 584 6 40 19 81 32
98 l21 28 -44 0 c-34 0 -49 -6 -69 -27z"/>
<path d="M1641 1769 c-1 -8 6 -24 15 -35 15 -19 15 -19 6 1 -5 11 -12 27 -15
35 -5 13 -6 13 -6 -1z"/>
<path d="M2511 1750 c14 -31 19 -36 19 -24 0 6 -7 19 -16 30 -14 18 -14 18 -3
-6z"/>
<path d="M2533 1645 c0 -38 2 -53 4 -32 2 20 2 52 0 70 -2 17 -4 1 -4 -38z"/>
<path d="M1708 1678 c5 -5 16 -8 23 -6 8 3 3 7 -10 11 -17 4 -21 3 -13 -5z"/>
<path d="M1793 1673 c9 -2 25 -2 35 0 9 3 1 5 -18 5 -19 0 -27 -2 -17 -5z"/>
<path d="M2522 1540 c0 -19 2 -27 5 -17 2 9 2 25 0 35 -3 9 -5 1 -5 -18z"/>
<path d="M2522 1430 c0 -14 2 -19 5 -12 2 6 2 18 0 25 -3 6 -5 1 -5 -13z"/>
<path d="M2531 1390 c0 -8 6 -28 14 -45 17 -39 18 -21 0 25 -7 19 -14 28 -14
20z"/>
<path d="M4450 1128 l0 -173 205 0 205 0 0 173 0 172 -205 0 -205 0 0 -172z"/>
<path d="M2570 1275 c0 -5 5 -17 10 -25 5 -8 10 -10 10 -5 0 6 -5 17 -10 25
-5 8 -10 11 -10 5z"/>
<path d="M2590 1225 c0 -5 5 -17 10 -25 5 -8 10 -10 10 -5 0 6 -5 17 -10 25
-5 8 -10 11 -10 5z"/>
<path d="M2630 1146 c0 -2 8 -10 18 -17 15 -13 16 -12 3 4 -13 16 -21 21 -21
13z"/>
<path d="M2752 1118 c-18 -18 -33 -23 -74 -22 -37 0 -45 -2 -29 -8 13 -4 48
-5 79 -1 32 4 49 9 39 11 -9 2 -15 8 -11 13 3 5 9 7 13 5 4 -3 8 1 8 9 0 19 2
19 -25 -7z"/>
<path d="M2677 1109 c7 -7 15 -10 18 -7 3 3 -2 9 -12 12 -14 6 -15 5 -6 -5z"/>
<path d="M2623 1032 c-25 -4 -53 -37 -53 -63 0 -10 8 -31 18 -48 l17 -31 185
2 185 3 3 37 c4 49 -20 64 -123 73 -44 4 -109 12 -145 19 -36 6 -75 10 -87 8z"/>
<path d="M4730 875 c0 -9 9 -15 25 -15 16 0 25 6 25 15 0 9 -9 15 -25 15 -16
0 -25 -6 -25 -15z"/>
<path d="M4450 625 l0 -205 205 0 205 0 0 205 0 205 -205 0 -205 0 0 -205z"/>
<path d="M2269 739 c-14 -14 -19 -30 -17 -52 l3 -32 158 -3 157 -3 0 40 c0 62
-21 71 -162 71 -106 0 -120 -2 -139 -21z"/>
<path d="M3734 525 c0 -88 2 -123 3 -77 2 46 2 118 0 160 -1 42 -3 5 -3 -83z"/>
</g>
</svg>
